<mxfile host="65bd71144e">
    <diagram id="SystemArchitecture" name="1. System Architecture">
        <mxGraphModel dx="632" dy="567" grid="1" gridSize="10" guides="1" tooltips="1" connect="1" arrows="1" fold="1" page="1" pageScale="1" pageWidth="1169" pageHeight="827" math="0" shadow="0">
            <root>
                <mxCell id="0"/>
                <mxCell id="1" parent="0"/>
                <mxCell id="title" value="LinOSS Brain Dynamics Architecture&#xa;(Carhart-Harris Consciousness Model)" style="text;html=1;strokeColor=none;fillColor=none;align=center;verticalAlign=middle;whiteSpace=wrap;rounded=0;fontSize=18;fontStyle=1;fontColor=#2E3440;" parent="1" vertex="1">
                    <mxGeometry x="300" y="20" width="569" height="50" as="geometry"/>
                </mxCell>
                <mxCell id="brainContainer" value="Brain Regions" style="rounded=1;whiteSpace=wrap;html=1;fontSize=14;fontStyle=1;fillColor=#E8F4FD;strokeColor=#1E88E5;strokeWidth=2;verticalAlign=top;" parent="1" vertex="1">
                    <mxGeometry x="50" y="100" width="1070" height="280" as="geometry"/>
                </mxCell>
                <mxCell id="pfc" value="Prefrontal Cortex" style="rounded=1;whiteSpace=wrap;html=1;fontSize=12;fontStyle=1;fillColor=#FFECB3;strokeColor=#F57F17;strokeWidth=2;" parent="1" vertex="1">
                    <mxGeometry x="80" y="140" width="300" height="220" as="geometry"/>
                </mxCell>
                <mxCell id="pfcLorenz" value="Lorenz Attractor&#xa;σ=10.0, ρ=28.0, β=8/3&#xa;Position: (x, y, z)&#xa;Coupling: 0.05" style="rounded=1;whiteSpace=wrap;html=1;fontSize=10;fillColor=#FFF3E0;strokeColor=#E65100;" parent="1" vertex="1">
                    <mxGeometry x="100" y="170" width="130" height="80" as="geometry"/>
                </mxCell>
                <mxCell id="pfcDLinOSS" value="dLinOSS Layer&#xa;Input: 3 (x,y,z)&#xa;Hidden: 8 oscillators&#xa;Output: 3 (x,y,z)&#xa;Damping: Enabled" style="rounded=1;whiteSpace=wrap;html=1;fontSize=10;fillColor=#E1F5FE;strokeColor=#0277BD;" parent="1" vertex="1">
                    <mxGeometry x="250" y="170" width="120" height="80" as="geometry"/>
                </mxCell>
                <mxCell id="pfcTraj" value="Trajectory Buffer&#xa;Max: 2000 points&#xa;2D Projection (x,y)&#xa;Color: Cyan" style="rounded=1;whiteSpace=wrap;html=1;fontSize=10;fillColor=#F3E5F5;strokeColor=#7B1FA2;" parent="1" vertex="1">
                    <mxGeometry x="100" y="270" width="270" height="60" as="geometry"/>
                </mxCell>
                <mxCell id="dmn" value="Default Mode Network" style="rounded=1;whiteSpace=wrap;html=1;fontSize=12;fontStyle=1;fillColor=#FFF8E1;strokeColor=#F9A825;strokeWidth=2;" parent="1" vertex="1">
                    <mxGeometry x="410" y="140" width="300" height="220" as="geometry"/>
                </mxCell>
                <mxCell id="dmnLorenz" value="Lorenz Attractor&#xa;σ=16.0, ρ=45.6, β=4.0&#xa;Position: (x, y, z)&#xa;Coupling: 0.08" style="rounded=1;whiteSpace=wrap;html=1;fontSize=10;fillColor=#FFF3E0;strokeColor=#E65100;" parent="1" vertex="1">
                    <mxGeometry x="430" y="170" width="130" height="80" as="geometry"/>
                </mxCell>
                <mxCell id="dmnDLinOSS" value="dLinOSS Layer&#xa;Input: 3 (x,y,z)&#xa;Hidden: 8 oscillators&#xa;Output: 3 (x,y,z)&#xa;Damping: Enabled" style="rounded=1;whiteSpace=wrap;html=1;fontSize=10;fillColor=#E1F5FE;strokeColor=#0277BD;" parent="1" vertex="1">
                    <mxGeometry x="580" y="170" width="120" height="80" as="geometry"/>
                </mxCell>
                <mxCell id="dmnTraj" value="Trajectory Buffer&#xa;Max: 2000 points&#xa;2D Projection (x,y)&#xa;Color: Yellow" style="rounded=1;whiteSpace=wrap;html=1;fontSize=10;fillColor=#F3E5F5;strokeColor=#7B1FA2;" parent="1" vertex="1">
                    <mxGeometry x="430" y="270" width="270" height="60" as="geometry"/>
                </mxCell>
                <mxCell id="thalamus" value="Thalamus" style="rounded=1;whiteSpace=wrap;html=1;fontSize=12;fontStyle=1;fillColor=#E8F5E8;strokeColor=#388E3C;strokeWidth=2;" parent="1" vertex="1">
                    <mxGeometry x="740" y="140" width="300" height="220" as="geometry"/>
                </mxCell>
                <mxCell id="thalLorenz" value="Lorenz Attractor&#xa;σ=12.0, ρ=35.0, β=3.0&#xa;Position: (x, y, z)&#xa;Coupling: 0.12" style="rounded=1;whiteSpace=wrap;html=1;fontSize=10;fillColor=#FFF3E0;strokeColor=#E65100;" parent="1" vertex="1">
                    <mxGeometry x="760" y="170" width="130" height="80" as="geometry"/>
                </mxCell>
                <mxCell id="thalDLinOSS" value="dLinOSS Layer&#xa;Input: 3 (x,y,z)&#xa;Hidden: 8 oscillators&#xa;Output: 3 (x,y,z)&#xa;Damping: Enabled" style="rounded=1;whiteSpace=wrap;html=1;fontSize=10;fillColor=#E1F5FE;strokeColor=#0277BD;" parent="1" vertex="1">
                    <mxGeometry x="910" y="170" width="120" height="80" as="geometry"/>
                </mxCell>
                <mxCell id="thalTraj" value="Trajectory Buffer&#xa;Max: 2000 points&#xa;2D Projection (x,y)&#xa;Color: Magenta" style="rounded=1;whiteSpace=wrap;html=1;fontSize=10;fillColor=#F3E5F5;strokeColor=#7B1FA2;" parent="1" vertex="1">
                    <mxGeometry x="760" y="270" width="270" height="60" as="geometry"/>
                </mxCell>
                <mxCell id="coupling" value="Inter-Region Coupling Matrix" style="rounded=1;whiteSpace=wrap;html=1;fontSize=14;fontStyle=1;fillColor=#FFEBEE;strokeColor=#C62828;strokeWidth=2;" parent="1" vertex="1">
                    <mxGeometry x="200" y="420" width="769" height="50" as="geometry"/>
                </mxCell>
                <mxCell id="simulation" value="Simulation Engine (dt=0.005s, 33Hz)" style="rounded=1;whiteSpace=wrap;html=1;fontSize=14;fontStyle=1;fillColor=#E0F2F1;strokeColor=#00695C;strokeWidth=2;" parent="1" vertex="1">
                    <mxGeometry x="50" y="520" width="520" height="80" as="geometry"/>
                </mxCell>
                <mxCell id="ui" value="TUI Visualization (Ratatui)" style="rounded=1;whiteSpace=wrap;html=1;fontSize=14;fontStyle=1;fillColor=#FFF3E0;strokeColor=#EF6C00;strokeWidth=2;" parent="1" vertex="1">
                    <mxGeometry x="600" y="520" width="520" height="80" as="geometry"/>
                </mxCell>
                <mxCell id="flow1" value="" style="edgeStyle=orthogonalEdgeStyle;rounded=0;orthogonalLoop=1;jettySize=auto;html=1;strokeColor=#1565C0;strokeWidth=2;endArrow=classic;" parent="1" source="pfcLorenz" target="pfcDLinOSS" edge="1">
                    <mxGeometry relative="1" as="geometry"/>
                </mxCell>
                <mxCell id="flow2" value="" style="edgeStyle=orthogonalEdgeStyle;rounded=0;orthogonalLoop=1;jettySize=auto;html=1;strokeColor=#1565C0;strokeWidth=2;endArrow=classic;" parent="1" source="dmnLorenz" target="dmnDLinOSS" edge="1">
                    <mxGeometry relative="1" as="geometry"/>
                </mxCell>
                <mxCell id="flow3" value="" style="edgeStyle=orthogonalEdgeStyle;rounded=0;orthogonalLoop=1;jettySize=auto;html=1;strokeColor=#1565C0;strokeWidth=2;endArrow=classic;" parent="1" source="thalLorenz" target="thalDLinOSS" edge="1">
                    <mxGeometry relative="1" as="geometry"/>
                </mxCell>
                <mxCell id="metrics" value="System Metrics: 3 dLinOSS Layers • ~471 Parameters • 33.3 Hz • ~15% CPU • ✅ Chaos Sustained" style="text;html=1;strokeColor=none;fillColor=none;align=center;verticalAlign=middle;whiteSpace=wrap;rounded=0;fontSize=12;fontStyle=1;fontColor=#1565C0;" parent="1" vertex="1">
                    <mxGeometry x="200" y="650" width="769" height="30" as="geometry"/>
                </mxCell>
            </root>
        </mxGraphModel>
    </diagram>
    <diagram id="DataFlow" name="2. Data Flow">
        <mxGraphModel dx="632" dy="567" grid="1" gridSize="10" guides="1" tooltips="1" connect="1" arrows="1" fold="1" page="1" pageScale="1" pageWidth="1169" pageHeight="827" math="0" shadow="0">
            <root>
                <mxCell id="0"/>
                <mxCell id="1" parent="0"/>
                <mxCell id="title2" value="LinOSS Brain Dynamics - Data Flow Architecture" style="text;html=1;strokeColor=none;fillColor=none;align=center;verticalAlign=middle;whiteSpace=wrap;rounded=0;fontSize=18;fontStyle=1;fontColor=#2E3440;" parent="1" vertex="1">
                    <mxGeometry x="200" y="30" width="769" height="50" as="geometry"/>
                </mxCell>
                <mxCell id="inputLayer" value="Input Layer" style="rounded=1;whiteSpace=wrap;html=1;fontSize=14;fontStyle=1;fillColor=#E3F2FD;strokeColor=#1976D2;strokeWidth=2;verticalAlign=top;" parent="1" vertex="1">
                    <mxGeometry x="50" y="120" width="1070" height="80" as="geometry"/>
                </mxCell>
                <mxCell id="pfcInit" value="PFC Init" style="rounded=1;whiteSpace=wrap;html=1;fontSize=10;fillColor=#BBDEFB;strokeColor=#1976D2;" parent="1" vertex="1">
                    <mxGeometry x="100" y="150" width="80" height="40" as="geometry"/>
                </mxCell>
                <mxCell id="dmnInit" value="DMN Init" style="rounded=1;whiteSpace=wrap;html=1;fontSize=10;fillColor=#BBDEFB;strokeColor=#1976D2;" parent="1" vertex="1">
                    <mxGeometry x="220" y="150" width="80" height="40" as="geometry"/>
                </mxCell>
                <mxCell id="thalInit" value="Thal Init" style="rounded=1;whiteSpace=wrap;html=1;fontSize=10;fillColor=#BBDEFB;strokeColor=#1976D2;" parent="1" vertex="1">
                    <mxGeometry x="340" y="150" width="80" height="40" as="geometry"/>
                </mxCell>
                <mxCell id="sysParams" value="System Params&#xa;dt=0.005" style="rounded=1;whiteSpace=wrap;html=1;fontSize=10;fillColor=#C8E6C9;strokeColor=#388E3C;" parent="1" vertex="1">
                    <mxGeometry x="500" y="150" width="100" height="40" as="geometry"/>
                </mxCell>
                <mxCell id="userControls" value="User Controls&#xa;(p,l,q,±)" style="rounded=1;whiteSpace=wrap;html=1;fontSize=10;fillColor=#FFE0B2;strokeColor=#F57C00;" parent="1" vertex="1">
                    <mxGeometry x="650" y="150" width="100" height="40" as="geometry"/>
                </mxCell>
                <mxCell id="processingLayer" value="Processing Layer" style="rounded=1;whiteSpace=wrap;html=1;fontSize=14;fontStyle=1;fillColor=#FFF3E0;strokeColor=#F57C00;strokeWidth=2;verticalAlign=top;" parent="1" vertex="1">
                    <mxGeometry x="50" y="240" width="1070" height="150" as="geometry"/>
                </mxCell>
                <mxCell id="lorenzComp" value="Lorenz&#xa;Dynamics" style="rounded=1;whiteSpace=wrap;html=1;fontSize=10;fillColor=#FFCC80;strokeColor=#F57C00;" parent="1" vertex="1">
                    <mxGeometry x="100" y="280" width="80" height="60" as="geometry"/>
                </mxCell>
                <mxCell id="dlinossProc" value="dLinOSS&#xa;Network" style="rounded=1;whiteSpace=wrap;html=1;fontSize=10;fillColor=#E1F5FE;strokeColor=#0277BD;" parent="1" vertex="1">
                    <mxGeometry x="220" y="280" width="80" height="60" as="geometry"/>
                </mxCell>
                <mxCell id="couplingMatrix" value="Coupling&#xa;Matrix" style="rounded=1;whiteSpace=wrap;html=1;fontSize=10;fillColor=#FCE4EC;strokeColor=#C2185B;" parent="1" vertex="1">
                    <mxGeometry x="340" y="280" width="80" height="60" as="geometry"/>
                </mxCell>
                <mxCell id="integration" value="Euler&#xa;Integration" style="rounded=1;whiteSpace=wrap;html=1;fontSize=10;fillColor=#E8F5E8;strokeColor=#388E3C;" parent="1" vertex="1">
                    <mxGeometry x="460" y="280" width="80" height="60" as="geometry"/>
                </mxCell>
                <mxCell id="stateUpdate" value="State&#xa;Update" style="rounded=1;whiteSpace=wrap;html=1;fontSize=10;fillColor=#F3E5F5;strokeColor=#7B1FA2;" parent="1" vertex="1">
                    <mxGeometry x="580" y="280" width="80" height="60" as="geometry"/>
                </mxCell>
                <mxCell id="trajMgmt" value="Trajectory Buffers (2000pts/region)" style="rounded=1;whiteSpace=wrap;html=1;fontSize=10;fillColor=#E0F2F1;strokeColor=#00695C;" parent="1" vertex="1">
                    <mxGeometry x="220" y="360" width="320" height="20" as="geometry"/>
                </mxCell>
                <mxCell id="outputLayer" value="Output Layer" style="rounded=1;whiteSpace=wrap;html=1;fontSize=14;fontStyle=1;fillColor=#F1F8E9;strokeColor=#689F38;strokeWidth=2;verticalAlign=top;" parent="1" vertex="1">
                    <mxGeometry x="50" y="430" width="1070" height="100" as="geometry"/>
                </mxCell>
                <mxCell id="tuiRender" value="TUI Render&#xa;33 FPS" style="rounded=1;whiteSpace=wrap;html=1;fontSize=10;fillColor=#DCEDC8;strokeColor=#689F38;" parent="1" vertex="1">
                    <mxGeometry x="100" y="470" width="100" height="50" as="geometry"/>
                </mxCell>
                <mxCell id="phaseDisplay" value="Phase Space&#xa;Display" style="rounded=1;whiteSpace=wrap;html=1;fontSize=10;fillColor=#E8F5E8;strokeColor=#4CAF50;" parent="1" vertex="1">
                    <mxGeometry x="240" y="470" width="100" height="50" as="geometry"/>
                </mxCell>
                <mxCell id="dataExport" value="JSON&#xa;Export" style="rounded=1;whiteSpace=wrap;html=1;fontSize=10;fillColor=#FFF3E0;strokeColor=#FF8F00;" parent="1" vertex="1">
                    <mxGeometry x="380" y="470" width="100" height="50" as="geometry"/>
                </mxCell>
                <mxCell id="dataFlow1" value="" style="edgeStyle=orthogonalEdgeStyle;rounded=0;orthogonalLoop=1;jettySize=auto;html=1;strokeColor=#2196F3;strokeWidth=3;endArrow=classic;" parent="1" source="inputLayer" target="processingLayer" edge="1">
                    <mxGeometry relative="1" as="geometry"/>
                </mxCell>
                <mxCell id="dataFlow2" value="" style="edgeStyle=orthogonalEdgeStyle;rounded=0;orthogonalLoop=1;jettySize=auto;html=1;strokeColor=#FF5722;strokeWidth=2;endArrow=classic;" parent="1" source="lorenzComp" target="dlinossProc" edge="1">
                    <mxGeometry relative="1" as="geometry"/>
                </mxCell>
                <mxCell id="dataFlow3" value="" style="edgeStyle=orthogonalEdgeStyle;rounded=0;orthogonalLoop=1;jettySize=auto;html=1;strokeColor=#FF5722;strokeWidth=2;endArrow=classic;" parent="1" source="dlinossProc" target="couplingMatrix" edge="1">
                    <mxGeometry relative="1" as="geometry"/>
                </mxCell>
                <mxCell id="dataFlow4" value="" style="edgeStyle=orthogonalEdgeStyle;rounded=0;orthogonalLoop=1;jettySize=auto;html=1;strokeColor=#FF5722;strokeWidth=2;endArrow=classic;" parent="1" source="couplingMatrix" target="integration" edge="1">
                    <mxGeometry relative="1" as="geometry"/>
                </mxCell>
                <mxCell id="dataFlow5" value="" style="edgeStyle=orthogonalEdgeStyle;rounded=0;orthogonalLoop=1;jettySize=auto;html=1;strokeColor=#4CAF50;strokeWidth=3;endArrow=classic;" parent="1" source="processingLayer" target="outputLayer" edge="1">
                    <mxGeometry relative="1" as="geometry"/>
                </mxCell>
                <mxCell id="perfMetrics" value="Performance: 297 values/sec input • ~471 params processed • 6000 display points @ 33Hz • ~100KB memory" style="text;html=1;strokeColor=none;fillColor=none;align=center;verticalAlign=middle;whiteSpace=wrap;rounded=0;fontSize=11;fontStyle=1;fontColor=#1565C0;" parent="1" vertex="1">
                    <mxGeometry x="50" y="570" width="1070" height="30" as="geometry"/>
                </mxCell>
            </root>
        </mxGraphModel>
    </diagram>
    <diagram id="TimingSequence" name="3. Timing Sequence">
        <mxGraphModel dx="1422" dy="794" grid="1" gridSize="10" guides="1" tooltips="1" connect="1" arrows="1" fold="1" page="1" pageScale="1" pageWidth="1169" pageHeight="827" math="0" shadow="0">
            <root>
                <mxCell id="0"/>
                <mxCell id="1" parent="0"/>
                <!-- Title -->
                <mxCell id="title3" value="LinOSS Brain Dynamics - Simulation Timing Sequence" style="text;html=1;strokeColor=none;fillColor=none;align=center;verticalAlign=middle;whiteSpace=wrap;rounded=0;fontSize=18;fontStyle=1;fontColor=#2E3440;" vertex="1" parent="1">
                    <mxGeometry x="200" y="30" width="769" height="50" as="geometry"/>
                </mxCell>
                <!-- Time Axis -->
                <mxCell id="timeAxis" value="Time" style="text;html=1;strokeColor=none;fillColor=none;align=center;verticalAlign=middle;whiteSpace=wrap;rounded=0;fontSize=14;fontStyle=1;" vertex="1" parent="1">
                    <mxGeometry x="50" y="100" width="80" height="30" as="geometry"/>
                </mxCell>
                <!-- Time markers -->
                <mxCell id="t0" value="t=0" style="text;html=1;strokeColor=none;fillColor=none;align=center;verticalAlign=middle;whiteSpace=wrap;rounded=0;fontSize=12;" vertex="1" parent="1">
                    <mxGeometry x="200" y="100" width="40" height="30" as="geometry"/>
                </mxCell>
                <mxCell id="t1" value="dt" style="text;html=1;strokeColor=none;fillColor=none;align=center;verticalAlign=middle;whiteSpace=wrap;rounded=0;fontSize=12;" vertex="1" parent="1">
                    <mxGeometry x="300" y="100" width="40" height="30" as="geometry"/>
                </mxCell>
                <mxCell id="t2" value="2dt" style="text;html=1;strokeColor=none;fillColor=none;align=center;verticalAlign=middle;whiteSpace=wrap;rounded=0;fontSize=12;" vertex="1" parent="1">
                    <mxGeometry x="400" y="100" width="40" height="30" as="geometry"/>
                </mxCell>
                <mxCell id="t3" value="3dt" style="text;html=1;strokeColor=none;fillColor=none;align=center;verticalAlign=middle;whiteSpace=wrap;rounded=0;fontSize=12;" vertex="1" parent="1">
                    <mxGeometry x="500" y="100" width="40" height="30" as="geometry"/>
                </mxCell>
                <!-- Process Rows -->
                <!-- Input Processing -->
                <mxCell id="inputLabel" value="Input" style="text;html=1;strokeColor=none;fillColor=none;align=left;verticalAlign=middle;whiteSpace=wrap;rounded=0;fontSize=12;fontStyle=1;" vertex="1" parent="1">
                    <mxGeometry x="50" y="160" width="80" height="30" as="geometry"/>
                </mxCell>
                <mxCell id="input1" value="Read" style="rounded=1;whiteSpace=wrap;html=1;fontSize=10;fillColor=#E3F2FD;strokeColor=#1976D2;" vertex="1" parent="1">
                    <mxGeometry x="200" y="160" width="60" height="30" as="geometry"/>
                </mxCell>
                <mxCell id="input2" value="Read" style="rounded=1;whiteSpace=wrap;html=1;fontSize=10;fillColor=#E3F2FD;strokeColor=#1976D2;" vertex="1" parent="1">
                    <mxGeometry x="300" y="160" width="60" height="30" as="geometry"/>
                </mxCell>
                <mxCell id="input3" value="Read" style="rounded=1;whiteSpace=wrap;html=1;fontSize=10;fillColor=#E3F2FD;strokeColor=#1976D2;" vertex="1" parent="1">
                    <mxGeometry x="400" y="160" width="60" height="30" as="geometry"/>
                </mxCell>
                <!-- Lorenz Computation -->
                <mxCell id="lorenzLabel" value="Lorenz" style="text;html=1;strokeColor=none;fillColor=none;align=left;verticalAlign=middle;whiteSpace=wrap;rounded=0;fontSize=12;fontStyle=1;" vertex="1" parent="1">
                    <mxGeometry x="50" y="210" width="80" height="30" as="geometry"/>
                </mxCell>
                <mxCell id="lorenz1" value="dx/dt" style="rounded=1;whiteSpace=wrap;html=1;fontSize=10;fillColor=#FFCC80;strokeColor=#F57C00;" vertex="1" parent="1">
                    <mxGeometry x="200" y="210" width="60" height="30" as="geometry"/>
                </mxCell>
                <mxCell id="lorenz2" value="dx/dt" style="rounded=1;whiteSpace=wrap;html=1;fontSize=10;fillColor=#FFCC80;strokeColor=#F57C00;" vertex="1" parent="1">
                    <mxGeometry x="300" y="210" width="60" height="30" as="geometry"/>
                </mxCell>
                <mxCell id="lorenz3" value="dx/dt" style="rounded=1;whiteSpace=wrap;html=1;fontSize=10;fillColor=#FFCC80;strokeColor=#F57C00;" vertex="1" parent="1">
                    <mxGeometry x="400" y="210" width="60" height="30" as="geometry"/>
                </mxCell>
                <!-- dLinOSS Processing -->
                <mxCell id="dlinossLabel" value="dLinOSS" style="text;html=1;strokeColor=none;fillColor=none;align=left;verticalAlign=middle;whiteSpace=wrap;rounded=0;fontSize=12;fontStyle=1;" vertex="1" parent="1">
                    <mxGeometry x="50" y="260" width="80" height="30" as="geometry"/>
                </mxCell>
                <mxCell id="dlinoss1" value="Forward" style="rounded=1;whiteSpace=wrap;html=1;fontSize=10;fillColor=#E1F5FE;strokeColor=#0277BD;" vertex="1" parent="1">
                    <mxGeometry x="200" y="260" width="60" height="30" as="geometry"/>
                </mxCell>
                <mxCell id="dlinoss2" value="Forward" style="rounded=1;whiteSpace=wrap;html=1;fontSize=10;fillColor=#E1F5FE;strokeColor=#0277BD;" vertex="1" parent="1">
                    <mxGeometry x="300" y="260" width="60" height="30" as="geometry"/>
                </mxCell>
                <mxCell id="dlinoss3" value="Forward" style="rounded=1;whiteSpace=wrap;html=1;fontSize=10;fillColor=#E1F5FE;strokeColor=#0277BD;" vertex="1" parent="1">
                    <mxGeometry x="400" y="260" width="60" height="30" as="geometry"/>
                </mxCell>
                <!-- Integration -->
                <mxCell id="integrationLabel" value="Integration" style="text;html=1;strokeColor=none;fillColor=none;align=left;verticalAlign=middle;whiteSpace=wrap;rounded=0;fontSize=12;fontStyle=1;" vertex="1" parent="1">
                    <mxGeometry x="50" y="310" width="80" height="30" as="geometry"/>
                </mxCell>
                <mxCell id="integration1" value="x+=dx*dt" style="rounded=1;whiteSpace=wrap;html=1;fontSize=10;fillColor=#E8F5E8;strokeColor=#388E3C;" vertex="1" parent="1">
                    <mxGeometry x="200" y="310" width="60" height="30" as="geometry"/>
                </mxCell>
                <mxCell id="integration2" value="x+=dx*dt" style="rounded=1;whiteSpace=wrap;html=1;fontSize=10;fillColor=#E8F5E8;strokeColor=#388E3C;" vertex="1" parent="1">
                    <mxGeometry x="300" y="310" width="60" height="30" as="geometry"/>
                </mxCell>
                <mxCell id="integration3" value="x+=dx*dt" style="rounded=1;whiteSpace=wrap;html=1;fontSize=10;fillColor=#E8F5E8;strokeColor=#388E3C;" vertex="1" parent="1">
                    <mxGeometry x="400" y="310" width="60" height="30" as="geometry"/>
                </mxCell>
                <!-- Visualization -->
                <mxCell id="vizLabel" value="TUI Render" style="text;html=1;strokeColor=none;fillColor=none;align=left;verticalAlign=middle;whiteSpace=wrap;rounded=0;fontSize=12;fontStyle=1;" vertex="1" parent="1">
                    <mxGeometry x="50" y="360" width="80" height="30" as="geometry"/>
                </mxCell>
                <mxCell id="viz1" value="Render" style="rounded=1;whiteSpace=wrap;html=1;fontSize=10;fillColor=#FFF8E1;strokeColor=#FBC02D;" vertex="1" parent="1">
                    <mxGeometry x="200" y="360" width="60" height="30" as="geometry"/>
                </mxCell>
                <mxCell id="viz2" value="Skip" style="rounded=1;whiteSpace=wrap;html=1;fontSize=10;fillColor=#F5F5F5;strokeColor=#9E9E9E;dashed=1;" vertex="1" parent="1">
                    <mxGeometry x="300" y="360" width="60" height="30" as="geometry"/>
                </mxCell>
                <mxCell id="viz3" value="Render" style="rounded=1;whiteSpace=wrap;html=1;fontSize=10;fillColor=#FFF8E1;strokeColor=#FBC02D;" vertex="1" parent="1">
                    <mxGeometry x="400" y="360" width="60" height="30" as="geometry"/>
                </mxCell>
                <!-- Timing Information -->
                <mxCell id="timingInfo" value="Timing Analysis (dt=0.005s, 33Hz target)" style="rounded=1;whiteSpace=wrap;html=1;fontSize=14;fontStyle=1;fillColor=#E8EAF6;strokeColor=#3F51B5;strokeWidth=2;verticalAlign=top;" vertex="1" parent="1">
                    <mxGeometry x="600" y="160" width="450" height="200" as="geometry"/>
                </mxCell>
                <mxCell id="timingDetails" value="Per Timestep Breakdown:&#xa;&#xa;• Input Processing: ~0.1ms&#xa;• Lorenz Computation: ~0.3ms (3 regions)&#xa;• dLinOSS Forward Pass: ~2.1ms (471 params)&#xa;• Coupling Matrix: ~0.2ms&#xa;• Euler Integration: ~0.1ms&#xa;• Trajectory Update: ~0.3ms&#xa;• TUI Rendering: ~26.9ms (critical path)&#xa;&#xa;Total: ~30ms per frame (33.3 Hz)&#xa;&#xa;Performance Optimizations:&#xa;✅ Skip rendering on high compute steps&#xa;✅ Efficient trajectory circular buffers&#xa;✅ Single-threaded stability maintained" style="text;html=1;strokeColor=none;fillColor=none;align=left;verticalAlign=middle;whiteSpace=wrap;rounded=0;fontSize=11;" vertex="1" parent="1">
                    <mxGeometry x="620" y="190" width="410" height="140" as="geometry"/>
                </mxCell>
                <!-- Flow Arrows -->
                <mxCell id="flow1t" value="" style="edgeStyle=orthogonalEdgeStyle;rounded=0;orthogonalLoop=1;jettySize=auto;html=1;strokeColor=#1976D2;strokeWidth=2;endArrow=classic;" edge="1" parent="1" source="input1" target="lorenz1">
                    <mxGeometry relative="1" as="geometry"/>
                </mxCell>
                <mxCell id="flow2t" value="" style="edgeStyle=orthogonalEdgeStyle;rounded=0;orthogonalLoop=1;jettySize=auto;html=1;strokeColor=#F57C00;strokeWidth=2;endArrow=classic;" edge="1" parent="1" source="lorenz1" target="dlinoss1">
                    <mxGeometry relative="1" as="geometry"/>
                </mxCell>
                <mxCell id="flow3t" value="" style="edgeStyle=orthogonalEdgeStyle;rounded=0;orthogonalLoop=1;jettySize=auto;html=1;strokeColor=#0277BD;strokeWidth=2;endArrow=classic;" edge="1" parent="1" source="dlinoss1" target="integration1">
                    <mxGeometry relative="1" as="geometry"/>
                </mxCell>
                <mxCell id="flow4t" value="" style="edgeStyle=orthogonalEdgeStyle;rounded=0;orthogonalLoop=1;jettySize=auto;html=1;strokeColor=#388E3C;strokeWidth=2;endArrow=classic;" edge="1" parent="1" source="integration1" target="viz1">
                    <mxGeometry relative="1" as="geometry"/>
                </mxCell>
                <!-- Summary -->
                <mxCell id="summary" value="Critical Path: TUI Rendering (~90% frame time) • CPU: 15% single core • Memory: ~100KB • ✅ Real-time chaos maintained" style="text;html=1;strokeColor=none;fillColor=none;align=center;verticalAlign=middle;whiteSpace=wrap;rounded=0;fontSize=12;fontStyle=1;fontColor=#1565C0;" vertex="1" parent="1">
                    <mxGeometry x="50" y="450" width="1000" height="30" as="geometry"/>
                </mxCell>
            </root>
        </mxGraphModel>
    </diagram>
    <diagram id="DeepLearningArchitecture" name="4. Neural Architecture">
        <mxGraphModel dx="1055" dy="567" grid="1" gridSize="10" guides="1" tooltips="1" connect="1" arrows="1" fold="1" page="1" pageScale="1" pageWidth="1169" pageHeight="827" math="0" shadow="0">
            <root>
                <mxCell id="0"/>
                <mxCell id="1" parent="0"/>
                <mxCell id="title4" value="Carhart-Harris Consciousness Model: Neural Architecture for Chaotic Brain Dynamics" style="text;html=1;strokeColor=none;fillColor=none;align=center;verticalAlign=middle;whiteSpace=wrap;rounded=0;fontSize=18;fontStyle=1;fontColor=#2E3440;" parent="1" vertex="1">
                    <mxGeometry x="100" y="20" width="969" height="50" as="geometry"/>
                </mxCell>
                <mxCell id="consciousnessLevels" value="Consciousness Levels (Carhart-Harris Model)" style="rounded=1;whiteSpace=wrap;html=1;fontSize=14;fontStyle=1;fillColor=#FFEBEE;strokeColor=#D32F2F;strokeWidth=2;verticalAlign=top;" parent="1" vertex="1">
                    <mxGeometry x="50" y="90" width="300" height="200" as="geometry"/>
                </mxCell>
                <mxCell id="level1" value="Higher Consciousness&#xa;(Psychedelic States)&#xa;High Entropy/Chaos" style="rounded=1;whiteSpace=wrap;html=1;fontSize=10;fillColor=#FFCDD2;strokeColor=#C62828;" parent="1" vertex="1">
                    <mxGeometry x="70" y="120" width="260" height="40" as="geometry"/>
                </mxCell>
                <mxCell id="level2" value="Normal Waking Consciousness&#xa;Moderate Entropy" style="rounded=1;whiteSpace=wrap;html=1;fontSize=10;fillColor=#F8BBD9;strokeColor=#AD1457;" parent="1" vertex="1">
                    <mxGeometry x="70" y="170" width="260" height="35" as="geometry"/>
                </mxCell>
                <mxCell id="level3" value="Reduced Consciousness&#xa;(Anesthesia, Sleep)&#xa;Low Entropy/Order" style="rounded=1;whiteSpace=wrap;html=1;fontSize=10;fillColor=#E1BEE7;strokeColor=#7B1FA2;" parent="1" vertex="1">
                    <mxGeometry x="70" y="215" width="260" height="40" as="geometry"/>
                </mxCell>
                <mxCell id="stateSpace" value="Neural State Space Representation" style="rounded=1;whiteSpace=wrap;html=1;fontSize=14;fontStyle=1;fillColor=#E8F5E8;strokeColor=#388E3C;strokeWidth=2;verticalAlign=top;" parent="1" vertex="1">
                    <mxGeometry x="380" y="90" width="360" height="200" as="geometry"/>
                </mxCell>
                <mxCell id="pfcAttractor" value="PFC Attractor&#xa;Executive Control&#xa;σ=10, ρ=28, β=8/3" style="rounded=1;whiteSpace=wrap;html=1;fontSize=10;fillColor=#A5D6A7;strokeColor=#388E3C;" parent="1" vertex="1">
                    <mxGeometry x="400" y="120" width="100" height="50" as="geometry"/>
                </mxCell>
                <mxCell id="dmnAttractor" value="DMN Attractor&#xa;Self-Reference&#xa;σ=16, ρ=45.6, β=4" style="rounded=1;whiteSpace=wrap;html=1;fontSize=10;fillColor=#FFCC80;strokeColor=#F57C00;" parent="1" vertex="1">
                    <mxGeometry x="520" y="120" width="100" height="50" as="geometry"/>
                </mxCell>
            </root>
        </mxGraphModel>
    </diagram>
    <diagram id="StateSpaceModel" name="5. State-Space Model">
        <mxGraphModel dx="1055" dy="567" grid="1" gridSize="10" guides="1" tooltips="1" connect="1" arrows="1" fold="1" page="1" pageScale="1" pageWidth="1169" pageHeight="827" math="0" shadow="0">
            <root>
                <mxCell id="0"/>
                <mxCell id="1" parent="0"/>
                <mxCell id="titleStateSpace" value="dLinOSS State-Space Model Architecture" style="text;html=1;strokeColor=none;fillColor=none;align=center;verticalAlign=middle;whiteSpace=wrap;rounded=0;fontSize=18;fontStyle=1;fontColor=#1A237E;" parent="1" vertex="1">
                    <mxGeometry x="200" y="30" width="769" height="40" as="geometry"/>
                </mxCell>
                <mxCell id="inputU" value="u" style="text;html=1;strokeColor=none;fillColor=none;align=center;verticalAlign=middle;whiteSpace=wrap;rounded=0;fontSize=16;fontStyle=1;" parent="1" vertex="1">
                    <mxGeometry x="50" y="200" width="30" height="30" as="geometry"/>
                </mxCell>
                <mxCell id="bMatrixSS" value="B" style="rounded=0;whiteSpace=wrap;html=1;fontSize=24;fontStyle=1;fillColor=#E3F2FD;strokeColor=#1976D2;strokeWidth=2;" parent="1" vertex="1">
                    <mxGeometry x="150" y="180" width="80" height="60" as="geometry"/>
                </mxCell>
                <mxCell id="addNode1" value="+" style="ellipse;whiteSpace=wrap;html=1;fontSize=20;fontStyle=1;fillColor=#FFF3E0;strokeColor=#F57C00;strokeWidth=2;" parent="1" vertex="1">
                    <mxGeometry x="280" y="190" width="40" height="40" as="geometry"/>
                </mxCell>
                <mxCell id="stateX" value="x" style="text;html=1;strokeColor=none;fillColor=none;align=center;verticalAlign=middle;whiteSpace=wrap;rounded=0;fontSize=16;fontStyle=1;" parent="1" vertex="1">
                    <mxGeometry x="360" y="180" width="30" height="30" as="geometry"/>
                </mxCell>
                <mxCell id="fFunction" value="f" style="rounded=0;whiteSpace=wrap;html=1;fontSize=24;fontStyle=1;fillColor=#F3E5F5;strokeColor=#7B1FA2;strokeWidth=2;" parent="1" vertex="1">
                    <mxGeometry x="420" y="180" width="80" height="60" as="geometry"/>
                </mxCell>
                <mxCell id="stateX2" value="x" style="text;html=1;strokeColor=none;fillColor=none;align=center;verticalAlign=middle;whiteSpace=wrap;rounded=0;fontSize=16;fontStyle=1;" parent="1" vertex="1">
                    <mxGeometry x="540" y="180" width="30" height="30" as="geometry"/>
                </mxCell>
                <mxCell id="cMatrixSS" value="C" style="rounded=0;whiteSpace=wrap;html=1;fontSize=24;fontStyle=1;fillColor=#E8F5E8;strokeColor=#388E3C;strokeWidth=2;" parent="1" vertex="1">
                    <mxGeometry x="600" y="180" width="80" height="60" as="geometry"/>
                </mxCell>
                <mxCell id="addNode2" value="+" style="ellipse;whiteSpace=wrap;html=1;fontSize=20;fontStyle=1;fillColor=#FFF3E0;strokeColor=#F57C00;strokeWidth=2;" parent="1" vertex="1">
                    <mxGeometry x="730" y="190" width="40" height="40" as="geometry"/>
                </mxCell>
                <mxCell id="outputY" value="y" style="text;html=1;strokeColor=none;fillColor=none;align=center;verticalAlign=middle;whiteSpace=wrap;rounded=0;fontSize=16;fontStyle=1;" parent="1" vertex="1">
                    <mxGeometry x="810" y="200" width="30" height="30" as="geometry"/>
                </mxCell>
                <mxCell id="aMatrixSS" value="A" style="rounded=0;whiteSpace=wrap;html=1;fontSize=24;fontStyle=1;fillColor=#FFEBEE;strokeColor=#D32F2F;strokeWidth=2;" parent="1" vertex="1">
                    <mxGeometry x="420" y="320" width="80" height="60" as="geometry"/>
                </mxCell>
                <mxCell id="dMatrixSS" value="D" style="rounded=0;whiteSpace=wrap;html=1;fontSize=24;fontStyle=1;fillColor=#FFF8E1;strokeColor=#F9A825;strokeWidth=2;" parent="1" vertex="1">
                    <mxGeometry x="450" y="100" width="80" height="60" as="geometry"/>
                </mxCell>
                <mxCell id="flowU2B" value="" style="edgeStyle=orthogonalEdgeStyle;rounded=0;orthogonalLoop=1;jettySize=auto;html=1;strokeColor=#1976D2;strokeWidth=3;endArrow=classic;" parent="1" source="inputU" target="bMatrixSS" edge="1">
                    <mxGeometry relative="1" as="geometry"/>
                </mxCell>
                <mxCell id="flowB2Add1" value="" style="edgeStyle=orthogonalEdgeStyle;rounded=0;orthogonalLoop=1;jettySize=auto;html=1;strokeColor=#1976D2;strokeWidth=3;endArrow=classic;" parent="1" source="bMatrixSS" target="addNode1" edge="1">
                    <mxGeometry relative="1" as="geometry"/>
                </mxCell>
                <mxCell id="flowAdd12X" value="" style="edgeStyle=orthogonalEdgeStyle;rounded=0;orthogonalLoop=1;jettySize=auto;html=1;strokeColor=#FF5722;strokeWidth=3;endArrow=classic;" parent="1" source="addNode1" target="stateX" edge="1">
                    <mxGeometry relative="1" as="geometry"/>
                </mxCell>
                <mxCell id="flowX2F" value="" style="edgeStyle=orthogonalEdgeStyle;rounded=0;orthogonalLoop=1;jettySize=auto;html=1;strokeColor=#7B1FA2;strokeWidth=3;endArrow=classic;" parent="1" source="stateX" target="fFunction" edge="1">
                    <mxGeometry relative="1" as="geometry"/>
                </mxCell>
                <mxCell id="flowF2X2" value="" style="edgeStyle=orthogonalEdgeStyle;rounded=0;orthogonalLoop=1;jettySize=auto;html=1;strokeColor=#7B1FA2;strokeWidth=3;endArrow=classic;" parent="1" source="fFunction" target="stateX2" edge="1">
                    <mxGeometry relative="1" as="geometry"/>
                </mxCell>
                <mxCell id="flowX22C" value="" style="edgeStyle=orthogonalEdgeStyle;rounded=0;orthogonalLoop=1;jettySize=auto;html=1;strokeColor=#388E3C;strokeWidth=3;endArrow=classic;" parent="1" source="stateX2" target="cMatrixSS" edge="1">
                    <mxGeometry relative="1" as="geometry"/>
                </mxCell>
                <mxCell id="flowC2Add2" value="" style="edgeStyle=orthogonalEdgeStyle;rounded=0;orthogonalLoop=1;jettySize=auto;html=1;strokeColor=#388E3C;strokeWidth=3;endArrow=classic;" parent="1" source="cMatrixSS" target="addNode2" edge="1">
                    <mxGeometry relative="1" as="geometry"/>
                </mxCell>
                <mxCell id="flowAdd22Y" value="" style="edgeStyle=orthogonalEdgeStyle;rounded=0;orthogonalLoop=1;jettySize=auto;html=1;strokeColor=#FF5722;strokeWidth=3;endArrow=classic;" parent="1" source="addNode2" target="outputY" edge="1">
                    <mxGeometry relative="1" as="geometry"/>
                </mxCell>
                <mxCell id="feedbackA" value="" style="edgeStyle=orthogonalEdgeStyle;rounded=0;orthogonalLoop=1;jettySize=auto;html=1;strokeColor=#D32F2F;strokeWidth=2;endArrow=classic;dashed=1;" parent="1" source="stateX2" target="aMatrixSS" edge="1">
                    <mxGeometry relative="1" as="geometry"/>
                </mxCell>
                <mxCell id="feedbackA2Add" value="" style="edgeStyle=orthogonalEdgeStyle;rounded=0;orthogonalLoop=1;jettySize=auto;html=1;strokeColor=#D32F2F;strokeWidth=2;endArrow=classic;dashed=1;" parent="1" source="aMatrixSS" target="addNode1" edge="1">
                    <mxGeometry relative="1" as="geometry">
                        <Array as="points">
                            <mxPoint x="460" y="280"/>
                            <mxPoint x="300" y="280"/>
                        </Array>
                    </mxGeometry>
                </mxCell>
                <mxCell id="feedthroughU2D" value="" style="edgeStyle=orthogonalEdgeStyle;rounded=0;orthogonalLoop=1;jettySize=auto;html=1;strokeColor=#F9A825;strokeWidth=2;endArrow=classic;dashed=1;" parent="1" source="inputU" target="dMatrixSS" edge="1">
                    <mxGeometry relative="1" as="geometry">
                        <Array as="points">
                            <mxPoint x="65" y="130"/>
                            <mxPoint x="490" y="130"/>
                        </Array>
                    </mxGeometry>
                </mxCell>
                <mxCell id="feedthroughD2Add2" value="" style="edgeStyle=orthogonalEdgeStyle;rounded=0;orthogonalLoop=1;jettySize=auto;html=1;strokeColor=#F9A825;strokeWidth=2;endArrow=classic;dashed=1;" parent="1" source="dMatrixSS" target="addNode2" edge="1">
                    <mxGeometry relative="1" as="geometry">
                        <Array as="points">
                            <mxPoint x="490" y="170"/>
                            <mxPoint x="750" y="170"/>
                        </Array>
                    </mxGeometry>
                </mxCell>
                <mxCell id="mathContainer" value="State-Space Mathematical Model" style="rounded=1;whiteSpace=wrap;html=1;fontSize=14;fontStyle=1;fillColor=#FFFDE7;strokeColor=#F57F17;strokeWidth=2;verticalAlign=top;" parent="1" vertex="1">
                    <mxGeometry x="50" y="450" width="790" height="200" as="geometry"/>
                </mxCell>
                <mxCell id="stateEq" value="State Equation:&#xa;x[t+1] = A·x[t] + B·u[t]&#xa;&#xa;Where:&#xa;• x[t]: Hidden state (oscillators)&#xa;• A: State transition matrix (dynamics)&#xa;• B: Input matrix (projection)" style="rounded=1;whiteSpace=wrap;html=1;fontSize=11;fillColor=#FFF8E1;strokeColor=#F57C00;align=left;" parent="1" vertex="1">
                    <mxGeometry x="70" y="480" width="200" height="120" as="geometry"/>
                </mxCell>
                <mxCell id="outputEq" value="Output Equation:&#xa;y[t] = C·x[t] + D·u[t]&#xa;&#xa;Where:&#xa;• y[t]: System output&#xa;• C: Output matrix (projection)&#xa;• D: Feedthrough matrix (direct)" style="rounded=1;whiteSpace=wrap;html=1;fontSize=11;fillColor=#E8F5E8;strokeColor=#4CAF50;align=left;" parent="1" vertex="1">
                    <mxGeometry x="290" y="480" width="200" height="120" as="geometry"/>
                </mxCell>
                <mxCell id="linossSpecific" value="dLinOSS Specifics:&#xa;• A = diag(e^(iω·Δt + γ(t)))&#xa;• γ(t): Damping function&#xa;• ω: Oscillator frequencies&#xa;• f: Nonlinear dynamics&#xa;• Chaotic coupling integration" style="rounded=1;whiteSpace=wrap;html=1;fontSize=11;fillColor=#F3E5F5;strokeColor=#9C27B0;align=left;" parent="1" vertex="1">
                    <mxGeometry x="510" y="480" width="200" height="120" as="geometry"/>
                </mxCell>
                <mxCell id="componentLabels" value="Component Descriptions" style="rounded=1;whiteSpace=wrap;html=1;fontSize=14;fontStyle=1;fillColor=#E1F5FE;strokeColor=#0277BD;strokeWidth=2;verticalAlign=top;" parent="1" vertex="1">
                    <mxGeometry x="870" y="120" width="250" height="300" as="geometry"/>
                </mxCell>
                <mxCell id="labelB" value="B Matrix:&#xa;Input projection [3→8]&#xa;Maps Lorenz state to&#xa;oscillatory space" style="rounded=1;whiteSpace=wrap;html=1;fontSize=10;fillColor=#E3F2FD;strokeColor=#1976D2;align=left;" parent="1" vertex="1">
                    <mxGeometry x="890" y="150" width="210" height="40" as="geometry"/>
                </mxCell>
                <mxCell id="labelF" value="f Function:&#xa;Nonlinear dynamics&#xa;Oscillatory evolution&#xa;Complex behavior" style="rounded=1;whiteSpace=wrap;html=1;fontSize=10;fillColor=#F3E5F5;strokeColor=#7B1FA2;align=left;" parent="1" vertex="1">
                    <mxGeometry x="890" y="200" width="210" height="40" as="geometry"/>
                </mxCell>
                <mxCell id="labelC" value="C Matrix:&#xa;Output projection [8→3]&#xa;Maps oscillators back&#xa;to Lorenz space" style="rounded=1;whiteSpace=wrap;html=1;fontSize=10;fillColor=#E8F5E8;strokeColor=#388E3C;align=left;" parent="1" vertex="1">
                    <mxGeometry x="890" y="250" width="210" height="40" as="geometry"/>
                </mxCell>
            </root>
        </mxGraphModel>
    </diagram>
</mxfile>